<mxfile host="drawio-plugin" agent="Mozilla/5.0 (X11; Linux x86_64) AppleWebKit/537.36 (KHTML, like Gecko) Chrome/122.0.0.0 Safari/537.36" modified="2025-10-05T23:39:16.745Z" etag="5nkoM2dzgRdDjssMiITq" version="22.1.22" type="embed">
  <diagram name="Seite-1" id="tv3RCUC1lsHie5otSo7a">
    <mxGraphModel dx="645" dy="552" grid="1" gridSize="10" guides="1" tooltips="1" connect="1" arrows="1" fold="1" page="1" pageScale="1" pageWidth="1169" pageHeight="827" math="0" shadow="0">
      <root>
        <mxCell id="0" />
        <mxCell id="1" parent="0" />
        <mxCell id="7UgKAC-AJGtY0KaAJKL_-1" style="rounded=0;orthogonalLoop=1;jettySize=auto;html=1;endArrow=none;endFill=0;" parent="1" source="7UgKAC-AJGtY0KaAJKL_-3" target="7UgKAC-AJGtY0KaAJKL_-10" edge="1">
          <mxGeometry relative="1" as="geometry" />
        </mxCell>
        <mxCell id="7UgKAC-AJGtY0KaAJKL_-2" style="rounded=0;orthogonalLoop=1;jettySize=auto;html=1;endArrow=none;endFill=0;" parent="1" source="7UgKAC-AJGtY0KaAJKL_-3" target="7UgKAC-AJGtY0KaAJKL_-28" edge="1">
          <mxGeometry relative="1" as="geometry" />
        </mxCell>
        <mxCell id="7UgKAC-AJGtY0KaAJKL_-3" value="&lt;b&gt;ReplicAccess&lt;/b&gt;" style="swimlane;fontStyle=0;align=center;verticalAlign=top;childLayout=stackLayout;horizontal=1;startSize=30;horizontalStack=0;resizeParent=1;resizeParentMax=0;resizeLast=0;collapsible=0;marginBottom=0;html=1;whiteSpace=wrap;" parent="1" vertex="1">
          <mxGeometry x="350" y="90" width="220" height="118" as="geometry" />
        </mxCell>
        <mxCell id="7UgKAC-AJGtY0KaAJKL_-4" value="id: UUID {readOnly}" style="text;html=1;strokeColor=none;fillColor=none;align=left;verticalAlign=middle;spacingLeft=4;spacingRight=4;overflow=hidden;rotatable=0;points=[[0,0.5],[1,0.5]];portConstraint=eastwest;whiteSpace=wrap;" parent="7UgKAC-AJGtY0KaAJKL_-3" vertex="1">
          <mxGeometry y="30" width="220" height="20" as="geometry" />
        </mxCell>
        <mxCell id="7UgKAC-AJGtY0KaAJKL_-5" value="creationTimestamp: Instant&amp;nbsp; {readOnly}" style="text;html=1;strokeColor=none;fillColor=none;align=left;verticalAlign=middle;spacingLeft=4;spacingRight=4;overflow=hidden;rotatable=0;points=[[0,0.5],[1,0.5]];portConstraint=eastwest;whiteSpace=wrap;" parent="7UgKAC-AJGtY0KaAJKL_-3" vertex="1">
          <mxGeometry y="50" width="220" height="20" as="geometry" />
        </mxCell>
        <mxCell id="7UgKAC-AJGtY0KaAJKL_-6" value="replic: Replic&amp;nbsp;{readOnly}" style="text;html=1;strokeColor=none;fillColor=none;align=left;verticalAlign=middle;spacingLeft=4;spacingRight=4;overflow=hidden;rotatable=0;points=[[0,0.5],[1,0.5]];portConstraint=eastwest;whiteSpace=wrap;" parent="7UgKAC-AJGtY0KaAJKL_-3" vertex="1">
          <mxGeometry y="70" width="220" height="20" as="geometry" />
        </mxCell>
        <mxCell id="7UgKAC-AJGtY0KaAJKL_-7" value="visitor: Account {readOnly}" style="text;html=1;strokeColor=none;fillColor=none;align=left;verticalAlign=middle;spacingLeft=4;spacingRight=4;overflow=hidden;rotatable=0;points=[[0,0.5],[1,0.5]];portConstraint=eastwest;whiteSpace=wrap;" parent="7UgKAC-AJGtY0KaAJKL_-3" vertex="1">
          <mxGeometry y="90" width="220" height="20" as="geometry" />
        </mxCell>
        <mxCell id="7UgKAC-AJGtY0KaAJKL_-8" value="" style="line;strokeWidth=1;fillColor=none;align=left;verticalAlign=middle;spacingTop=-1;spacingLeft=3;spacingRight=3;rotatable=0;labelPosition=right;points=[];portConstraint=eastwest;" parent="7UgKAC-AJGtY0KaAJKL_-3" vertex="1">
          <mxGeometry y="110" width="220" height="8" as="geometry" />
        </mxCell>
        <mxCell id="7UgKAC-AJGtY0KaAJKL_-9" style="edgeStyle=orthogonalEdgeStyle;rounded=0;orthogonalLoop=1;jettySize=auto;html=1;endArrow=none;endFill=0;" parent="1" source="7UgKAC-AJGtY0KaAJKL_-10" target="7UgKAC-AJGtY0KaAJKL_-28" edge="1">
          <mxGeometry relative="1" as="geometry">
            <Array as="points">
              <mxPoint x="510" y="420" />
              <mxPoint x="510" y="420" />
            </Array>
          </mxGeometry>
        </mxCell>
        <mxCell id="7UgKAC-AJGtY0KaAJKL_-103" style="edgeStyle=orthogonalEdgeStyle;rounded=0;orthogonalLoop=1;jettySize=auto;html=1;endArrow=block;endFill=0;" parent="1" source="7UgKAC-AJGtY0KaAJKL_-10" target="7UgKAC-AJGtY0KaAJKL_-92" edge="1">
          <mxGeometry relative="1" as="geometry" />
        </mxCell>
        <mxCell id="7UgKAC-AJGtY0KaAJKL_-10" value="&lt;b&gt;Replic&lt;/b&gt;" style="swimlane;fontStyle=0;align=center;verticalAlign=top;childLayout=stackLayout;horizontal=1;startSize=30;horizontalStack=0;resizeParent=1;resizeParentMax=0;resizeLast=0;collapsible=0;marginBottom=0;html=1;whiteSpace=wrap;" parent="1" vertex="1">
          <mxGeometry x="320" y="390" width="160" height="58" as="geometry" />
        </mxCell>
        <mxCell id="7UgKAC-AJGtY0KaAJKL_-19" value="size: long {readOnly}" style="text;html=1;strokeColor=none;fillColor=none;align=left;verticalAlign=middle;spacingLeft=4;spacingRight=4;overflow=hidden;rotatable=0;points=[[0,0.5],[1,0.5]];portConstraint=eastwest;whiteSpace=wrap;" parent="7UgKAC-AJGtY0KaAJKL_-10" vertex="1">
          <mxGeometry y="30" width="160" height="20" as="geometry" />
        </mxCell>
        <mxCell id="7UgKAC-AJGtY0KaAJKL_-20" value="" style="line;strokeWidth=1;fillColor=none;align=left;verticalAlign=middle;spacingTop=-1;spacingLeft=3;spacingRight=3;rotatable=0;labelPosition=right;points=[];portConstraint=eastwest;" parent="7UgKAC-AJGtY0KaAJKL_-10" vertex="1">
          <mxGeometry y="50" width="160" height="8" as="geometry" />
        </mxCell>
        <mxCell id="7UgKAC-AJGtY0KaAJKL_-21" value="&lt;div&gt;&amp;lt;&amp;lt;enum&amp;gt;&amp;gt;&lt;/div&gt;&lt;div&gt;&lt;b&gt;ReplicState&lt;/b&gt;&lt;/div&gt;" style="swimlane;fontStyle=0;align=center;verticalAlign=top;childLayout=stackLayout;horizontal=1;startSize=40;horizontalStack=0;resizeParent=1;resizeParentMax=0;resizeLast=0;collapsible=0;marginBottom=0;html=1;whiteSpace=wrap;" parent="1" vertex="1">
          <mxGeometry x="10" y="50" width="190" height="98" as="geometry" />
        </mxCell>
        <mxCell id="7UgKAC-AJGtY0KaAJKL_-22" value="&lt;div&gt;ACTIVE,&lt;/div&gt;&lt;div&gt;INACTIVE,&lt;/div&gt;&lt;div&gt;REMOVED&lt;/div&gt;" style="text;html=1;strokeColor=none;fillColor=none;align=center;verticalAlign=middle;spacingLeft=4;spacingRight=4;overflow=hidden;rotatable=0;points=[[0,0.5],[1,0.5]];portConstraint=eastwest;whiteSpace=wrap;fontStyle=1" parent="7UgKAC-AJGtY0KaAJKL_-21" vertex="1">
          <mxGeometry y="40" width="190" height="50" as="geometry" />
        </mxCell>
        <mxCell id="7UgKAC-AJGtY0KaAJKL_-23" value="" style="line;strokeWidth=1;fillColor=none;align=left;verticalAlign=middle;spacingTop=-1;spacingLeft=3;spacingRight=3;rotatable=0;labelPosition=right;points=[];portConstraint=eastwest;" parent="7UgKAC-AJGtY0KaAJKL_-21" vertex="1">
          <mxGeometry y="90" width="190" height="8" as="geometry" />
        </mxCell>
        <mxCell id="7UgKAC-AJGtY0KaAJKL_-24" value="&lt;div&gt;&amp;lt;&amp;lt;enum&amp;gt;&amp;gt;&lt;/div&gt;&lt;div&gt;&lt;b&gt;MediaMode&lt;/b&gt;&lt;/div&gt;" style="swimlane;fontStyle=0;align=center;verticalAlign=top;childLayout=stackLayout;horizontal=1;startSize=40;horizontalStack=0;resizeParent=1;resizeParentMax=0;resizeLast=0;collapsible=0;marginBottom=0;html=1;whiteSpace=wrap;" parent="1" vertex="1">
          <mxGeometry x="10" y="180" width="190" height="98" as="geometry" />
        </mxCell>
        <mxCell id="7UgKAC-AJGtY0KaAJKL_-25" value="&lt;div&gt;ALL,&lt;/div&gt;&lt;div&gt;IMAGES,&lt;/div&gt;&lt;div&gt;NONE&lt;/div&gt;" style="text;html=1;strokeColor=none;fillColor=none;align=center;verticalAlign=middle;spacingLeft=4;spacingRight=4;overflow=hidden;rotatable=0;points=[[0,0.5],[1,0.5]];portConstraint=eastwest;whiteSpace=wrap;fontStyle=1" parent="7UgKAC-AJGtY0KaAJKL_-24" vertex="1">
          <mxGeometry y="40" width="190" height="50" as="geometry" />
        </mxCell>
        <mxCell id="7UgKAC-AJGtY0KaAJKL_-26" value="" style="line;strokeWidth=1;fillColor=none;align=left;verticalAlign=middle;spacingTop=-1;spacingLeft=3;spacingRight=3;rotatable=0;labelPosition=right;points=[];portConstraint=eastwest;" parent="7UgKAC-AJGtY0KaAJKL_-24" vertex="1">
          <mxGeometry y="90" width="190" height="8" as="geometry" />
        </mxCell>
        <mxCell id="7UgKAC-AJGtY0KaAJKL_-27" style="edgeStyle=orthogonalEdgeStyle;rounded=0;orthogonalLoop=1;jettySize=auto;html=1;endArrow=none;endFill=0;" parent="1" source="7UgKAC-AJGtY0KaAJKL_-28" target="7UgKAC-AJGtY0KaAJKL_-40" edge="1">
          <mxGeometry relative="1" as="geometry">
            <Array as="points">
              <mxPoint x="870" y="420" />
            </Array>
          </mxGeometry>
        </mxCell>
        <mxCell id="7UgKAC-AJGtY0KaAJKL_-28" value="&lt;div&gt;&lt;b&gt;Account&lt;/b&gt;&lt;/div&gt;" style="swimlane;fontStyle=0;align=center;verticalAlign=top;childLayout=stackLayout;horizontal=1;startSize=30;horizontalStack=0;resizeParent=1;resizeParentMax=0;resizeLast=0;collapsible=0;marginBottom=0;html=1;whiteSpace=wrap;" parent="1" vertex="1">
          <mxGeometry x="550" y="330" width="220" height="198" as="geometry" />
        </mxCell>
        <mxCell id="7UgKAC-AJGtY0KaAJKL_-29" value="id: UUID {readOnly}" style="text;html=1;strokeColor=none;fillColor=none;align=left;verticalAlign=middle;spacingLeft=4;spacingRight=4;overflow=hidden;rotatable=0;points=[[0,0.5],[1,0.5]];portConstraint=eastwest;whiteSpace=wrap;" parent="7UgKAC-AJGtY0KaAJKL_-28" vertex="1">
          <mxGeometry y="30" width="220" height="20" as="geometry" />
        </mxCell>
        <mxCell id="7UgKAC-AJGtY0KaAJKL_-30" value="creationTimestamp: Instant {readOnly}" style="text;html=1;strokeColor=none;fillColor=none;align=left;verticalAlign=middle;spacingLeft=4;spacingRight=4;overflow=hidden;rotatable=0;points=[[0,0.5],[1,0.5]];portConstraint=eastwest;whiteSpace=wrap;" parent="7UgKAC-AJGtY0KaAJKL_-28" vertex="1">
          <mxGeometry y="50" width="220" height="20" as="geometry" />
        </mxCell>
        <mxCell id="7UgKAC-AJGtY0KaAJKL_-31" value="email: String" style="text;html=1;strokeColor=none;fillColor=none;align=left;verticalAlign=middle;spacingLeft=4;spacingRight=4;overflow=hidden;rotatable=0;points=[[0,0.5],[1,0.5]];portConstraint=eastwest;whiteSpace=wrap;" parent="7UgKAC-AJGtY0KaAJKL_-28" vertex="1">
          <mxGeometry y="70" width="220" height="20" as="geometry" />
        </mxCell>
        <mxCell id="7UgKAC-AJGtY0KaAJKL_-32" value="username: String" style="text;html=1;strokeColor=none;fillColor=none;align=left;verticalAlign=middle;spacingLeft=4;spacingRight=4;overflow=hidden;rotatable=0;points=[[0,0.5],[1,0.5]];portConstraint=eastwest;whiteSpace=wrap;" parent="7UgKAC-AJGtY0KaAJKL_-28" vertex="1">
          <mxGeometry y="90" width="220" height="20" as="geometry" />
        </mxCell>
        <mxCell id="2" value="isAdmin: Boolean" style="text;html=1;strokeColor=none;fillColor=none;align=left;verticalAlign=middle;spacingLeft=4;spacingRight=4;overflow=hidden;rotatable=0;points=[[0,0.5],[1,0.5]];portConstraint=eastwest;whiteSpace=wrap;" parent="7UgKAC-AJGtY0KaAJKL_-28" vertex="1">
          <mxGeometry y="110" width="220" height="20" as="geometry" />
        </mxCell>
        <mxCell id="7UgKAC-AJGtY0KaAJKL_-33" value="passwordHash: String" style="text;html=1;strokeColor=none;fillColor=none;align=left;verticalAlign=middle;spacingLeft=4;spacingRight=4;overflow=hidden;rotatable=0;points=[[0,0.5],[1,0.5]];portConstraint=eastwest;whiteSpace=wrap;" parent="7UgKAC-AJGtY0KaAJKL_-28" vertex="1">
          <mxGeometry y="130" width="220" height="20" as="geometry" />
        </mxCell>
        <mxCell id="7UgKAC-AJGtY0KaAJKL_-34" value="accountState: AccountState" style="text;html=1;strokeColor=none;fillColor=none;align=left;verticalAlign=middle;spacingLeft=4;spacingRight=4;overflow=hidden;rotatable=0;points=[[0,0.5],[1,0.5]];portConstraint=eastwest;whiteSpace=wrap;" parent="7UgKAC-AJGtY0KaAJKL_-28" vertex="1">
          <mxGeometry y="150" width="220" height="20" as="geometry" />
        </mxCell>
        <mxCell id="7UgKAC-AJGtY0KaAJKL_-35" value="profileColor: int" style="text;html=1;strokeColor=none;fillColor=none;align=left;verticalAlign=middle;spacingLeft=4;spacingRight=4;overflow=hidden;rotatable=0;points=[[0,0.5],[1,0.5]];portConstraint=eastwest;whiteSpace=wrap;" parent="7UgKAC-AJGtY0KaAJKL_-28" vertex="1">
          <mxGeometry y="170" width="220" height="20" as="geometry" />
        </mxCell>
        <mxCell id="7UgKAC-AJGtY0KaAJKL_-36" value="" style="line;strokeWidth=1;fillColor=none;align=left;verticalAlign=middle;spacingTop=-1;spacingLeft=3;spacingRight=3;rotatable=0;labelPosition=right;points=[];portConstraint=eastwest;" parent="7UgKAC-AJGtY0KaAJKL_-28" vertex="1">
          <mxGeometry y="190" width="220" height="8" as="geometry" />
        </mxCell>
        <mxCell id="7UgKAC-AJGtY0KaAJKL_-37" value="&lt;div&gt;&amp;lt;&amp;lt;enum&amp;gt;&amp;gt;&lt;/div&gt;&lt;div&gt;&lt;b&gt;AccountState&lt;/b&gt;&lt;/div&gt;" style="swimlane;fontStyle=0;align=center;verticalAlign=top;childLayout=stackLayout;horizontal=1;startSize=40;horizontalStack=0;resizeParent=1;resizeParentMax=0;resizeLast=0;collapsible=0;marginBottom=0;html=1;whiteSpace=wrap;" parent="1" vertex="1">
          <mxGeometry x="594" y="90" width="190" height="98" as="geometry" />
        </mxCell>
        <mxCell id="7UgKAC-AJGtY0KaAJKL_-38" value="&lt;div&gt;ACTIVE,&lt;/div&gt;&lt;div&gt;INACTIVE,&lt;/div&gt;&lt;div&gt;UNVERIFIED&lt;/div&gt;" style="text;html=1;strokeColor=none;fillColor=none;align=center;verticalAlign=middle;spacingLeft=4;spacingRight=4;overflow=hidden;rotatable=0;points=[[0,0.5],[1,0.5]];portConstraint=eastwest;whiteSpace=wrap;fontStyle=1" parent="7UgKAC-AJGtY0KaAJKL_-37" vertex="1">
          <mxGeometry y="40" width="190" height="50" as="geometry" />
        </mxCell>
        <mxCell id="7UgKAC-AJGtY0KaAJKL_-39" value="" style="line;strokeWidth=1;fillColor=none;align=left;verticalAlign=middle;spacingTop=-1;spacingLeft=3;spacingRight=3;rotatable=0;labelPosition=right;points=[];portConstraint=eastwest;" parent="7UgKAC-AJGtY0KaAJKL_-37" vertex="1">
          <mxGeometry y="90" width="190" height="8" as="geometry" />
        </mxCell>
        <mxCell id="7UgKAC-AJGtY0KaAJKL_-40" value="&lt;b&gt;AuthToken&lt;/b&gt;" style="swimlane;fontStyle=0;align=center;verticalAlign=top;childLayout=stackLayout;horizontal=1;startSize=30;horizontalStack=0;resizeParent=1;resizeParentMax=0;resizeLast=0;collapsible=0;marginBottom=0;html=1;whiteSpace=wrap;" parent="1" vertex="1">
          <mxGeometry x="836" y="320" width="220" height="198" as="geometry" />
        </mxCell>
        <mxCell id="7UgKAC-AJGtY0KaAJKL_-41" value="creationTimestamp: Instant {readOnly}" style="text;html=1;strokeColor=none;fillColor=none;align=left;verticalAlign=middle;spacingLeft=4;spacingRight=4;overflow=hidden;rotatable=0;points=[[0,0.5],[1,0.5]];portConstraint=eastwest;whiteSpace=wrap;" parent="7UgKAC-AJGtY0KaAJKL_-40" vertex="1">
          <mxGeometry y="30" width="220" height="20" as="geometry" />
        </mxCell>
        <mxCell id="7UgKAC-AJGtY0KaAJKL_-42" value="id: UUID {readOnly}" style="text;html=1;strokeColor=none;fillColor=none;align=left;verticalAlign=middle;spacingLeft=4;spacingRight=4;overflow=hidden;rotatable=0;points=[[0,0.5],[1,0.5]];portConstraint=eastwest;whiteSpace=wrap;" parent="7UgKAC-AJGtY0KaAJKL_-40" vertex="1">
          <mxGeometry y="50" width="220" height="20" as="geometry" />
        </mxCell>
        <mxCell id="7UgKAC-AJGtY0KaAJKL_-43" value="token: UUID {readOnly}" style="text;html=1;strokeColor=none;fillColor=none;align=left;verticalAlign=middle;spacingLeft=4;spacingRight=4;overflow=hidden;rotatable=0;points=[[0,0.5],[1,0.5]];portConstraint=eastwest;whiteSpace=wrap;" parent="7UgKAC-AJGtY0KaAJKL_-40" vertex="1">
          <mxGeometry y="70" width="220" height="20" as="geometry" />
        </mxCell>
        <mxCell id="7UgKAC-AJGtY0KaAJKL_-44" value="expiresTimestamp: Instant {readOnly}" style="text;html=1;strokeColor=none;fillColor=none;align=left;verticalAlign=middle;spacingLeft=4;spacingRight=4;overflow=hidden;rotatable=0;points=[[0,0.5],[1,0.5]];portConstraint=eastwest;whiteSpace=wrap;" parent="7UgKAC-AJGtY0KaAJKL_-40" vertex="1">
          <mxGeometry y="90" width="220" height="20" as="geometry" />
        </mxCell>
        <mxCell id="7UgKAC-AJGtY0KaAJKL_-45" value="account: Account {readOnly}" style="text;html=1;strokeColor=none;fillColor=none;align=left;verticalAlign=middle;spacingLeft=4;spacingRight=4;overflow=hidden;rotatable=0;points=[[0,0.5],[1,0.5]];portConstraint=eastwest;whiteSpace=wrap;" parent="7UgKAC-AJGtY0KaAJKL_-40" vertex="1">
          <mxGeometry y="110" width="220" height="20" as="geometry" />
        </mxCell>
        <mxCell id="7UgKAC-AJGtY0KaAJKL_-46" value="type: AuthTokenType {readOnly}" style="text;html=1;strokeColor=none;fillColor=none;align=left;verticalAlign=middle;spacingLeft=4;spacingRight=4;overflow=hidden;rotatable=0;points=[[0,0.5],[1,0.5]];portConstraint=eastwest;whiteSpace=wrap;" parent="7UgKAC-AJGtY0KaAJKL_-40" vertex="1">
          <mxGeometry y="130" width="220" height="20" as="geometry" />
        </mxCell>
        <mxCell id="7UgKAC-AJGtY0KaAJKL_-47" value="data: String {readOnly}" style="text;html=1;strokeColor=none;fillColor=none;align=left;verticalAlign=middle;spacingLeft=4;spacingRight=4;overflow=hidden;rotatable=0;points=[[0,0.5],[1,0.5]];portConstraint=eastwest;whiteSpace=wrap;" parent="7UgKAC-AJGtY0KaAJKL_-40" vertex="1">
          <mxGeometry y="150" width="220" height="20" as="geometry" />
        </mxCell>
        <mxCell id="7UgKAC-AJGtY0KaAJKL_-48" value="invalidated: boolean" style="text;html=1;strokeColor=none;fillColor=none;align=left;verticalAlign=middle;spacingLeft=4;spacingRight=4;overflow=hidden;rotatable=0;points=[[0,0.5],[1,0.5]];portConstraint=eastwest;whiteSpace=wrap;" parent="7UgKAC-AJGtY0KaAJKL_-40" vertex="1">
          <mxGeometry y="170" width="220" height="20" as="geometry" />
        </mxCell>
        <mxCell id="7UgKAC-AJGtY0KaAJKL_-49" value="" style="line;strokeWidth=1;fillColor=none;align=left;verticalAlign=middle;spacingTop=-1;spacingLeft=3;spacingRight=3;rotatable=0;labelPosition=right;points=[];portConstraint=eastwest;" parent="7UgKAC-AJGtY0KaAJKL_-40" vertex="1">
          <mxGeometry y="190" width="220" height="8" as="geometry" />
        </mxCell>
        <mxCell id="7UgKAC-AJGtY0KaAJKL_-50" value="&lt;div&gt;&amp;lt;&amp;lt;enum&amp;gt;&amp;gt;&lt;/div&gt;&lt;div&gt;&lt;b&gt;ReportState&lt;/b&gt;&lt;/div&gt;" style="swimlane;fontStyle=0;align=center;verticalAlign=top;childLayout=stackLayout;horizontal=1;startSize=40;horizontalStack=0;resizeParent=1;resizeParentMax=0;resizeLast=0;collapsible=0;marginBottom=0;html=1;whiteSpace=wrap;" parent="1" vertex="1">
          <mxGeometry x="200" y="700" width="190" height="98" as="geometry" />
        </mxCell>
        <mxCell id="7UgKAC-AJGtY0KaAJKL_-51" value="&lt;div&gt;OPEN,&lt;/div&gt;&lt;div&gt;CLOSED,&lt;/div&gt;&lt;div&gt;REVIEWED&lt;/div&gt;" style="text;html=1;strokeColor=none;fillColor=none;align=center;verticalAlign=middle;spacingLeft=4;spacingRight=4;overflow=hidden;rotatable=0;points=[[0,0.5],[1,0.5]];portConstraint=eastwest;whiteSpace=wrap;fontStyle=1" parent="7UgKAC-AJGtY0KaAJKL_-50" vertex="1">
          <mxGeometry y="40" width="190" height="50" as="geometry" />
        </mxCell>
        <mxCell id="7UgKAC-AJGtY0KaAJKL_-52" value="" style="line;strokeWidth=1;fillColor=none;align=left;verticalAlign=middle;spacingTop=-1;spacingLeft=3;spacingRight=3;rotatable=0;labelPosition=right;points=[];portConstraint=eastwest;" parent="7UgKAC-AJGtY0KaAJKL_-50" vertex="1">
          <mxGeometry y="90" width="190" height="8" as="geometry" />
        </mxCell>
        <mxCell id="7UgKAC-AJGtY0KaAJKL_-53" style="rounded=0;orthogonalLoop=1;jettySize=auto;html=1;endArrow=none;endFill=0;" parent="1" source="7UgKAC-AJGtY0KaAJKL_-55" target="7UgKAC-AJGtY0KaAJKL_-28" edge="1">
          <mxGeometry relative="1" as="geometry" />
        </mxCell>
        <mxCell id="7UgKAC-AJGtY0KaAJKL_-54" style="rounded=0;orthogonalLoop=1;jettySize=auto;html=1;endArrow=none;endFill=0;" parent="1" source="7UgKAC-AJGtY0KaAJKL_-55" target="7UgKAC-AJGtY0KaAJKL_-10" edge="1">
          <mxGeometry relative="1" as="geometry" />
        </mxCell>
        <mxCell id="7UgKAC-AJGtY0KaAJKL_-55" value="&lt;b&gt;Report&lt;/b&gt;" style="swimlane;fontStyle=0;align=center;verticalAlign=top;childLayout=stackLayout;horizontal=1;startSize=30;horizontalStack=0;resizeParent=1;resizeParentMax=0;resizeLast=0;collapsible=0;marginBottom=0;html=1;whiteSpace=wrap;" parent="1" vertex="1">
          <mxGeometry x="415" y="642" width="220" height="138" as="geometry" />
        </mxCell>
        <mxCell id="7UgKAC-AJGtY0KaAJKL_-56" value="id: UUID {readOnly}" style="text;html=1;strokeColor=none;fillColor=none;align=left;verticalAlign=middle;spacingLeft=4;spacingRight=4;overflow=hidden;rotatable=0;points=[[0,0.5],[1,0.5]];portConstraint=eastwest;whiteSpace=wrap;" parent="7UgKAC-AJGtY0KaAJKL_-55" vertex="1">
          <mxGeometry y="30" width="220" height="20" as="geometry" />
        </mxCell>
        <mxCell id="7UgKAC-AJGtY0KaAJKL_-57" value="creationTimestamp: Instant {readOnly}" style="text;html=1;strokeColor=none;fillColor=none;align=left;verticalAlign=middle;spacingLeft=4;spacingRight=4;overflow=hidden;rotatable=0;points=[[0,0.5],[1,0.5]];portConstraint=eastwest;whiteSpace=wrap;" parent="7UgKAC-AJGtY0KaAJKL_-55" vertex="1">
          <mxGeometry y="50" width="220" height="20" as="geometry" />
        </mxCell>
        <mxCell id="7UgKAC-AJGtY0KaAJKL_-58" value="replic: Replic {readOnly}" style="text;html=1;strokeColor=none;fillColor=none;align=left;verticalAlign=middle;spacingLeft=4;spacingRight=4;overflow=hidden;rotatable=0;points=[[0,0.5],[1,0.5]];portConstraint=eastwest;whiteSpace=wrap;" parent="7UgKAC-AJGtY0KaAJKL_-55" vertex="1">
          <mxGeometry y="70" width="220" height="20" as="geometry" />
        </mxCell>
        <mxCell id="7UgKAC-AJGtY0KaAJKL_-59" value="owner: Account {readOnly}" style="text;html=1;strokeColor=none;fillColor=none;align=left;verticalAlign=middle;spacingLeft=4;spacingRight=4;overflow=hidden;rotatable=0;points=[[0,0.5],[1,0.5]];portConstraint=eastwest;whiteSpace=wrap;" parent="7UgKAC-AJGtY0KaAJKL_-55" vertex="1">
          <mxGeometry y="90" width="220" height="20" as="geometry" />
        </mxCell>
        <mxCell id="7UgKAC-AJGtY0KaAJKL_-60" value="state: ReportState" style="text;html=1;strokeColor=none;fillColor=none;align=left;verticalAlign=middle;spacingLeft=4;spacingRight=4;overflow=hidden;rotatable=0;points=[[0,0.5],[1,0.5]];portConstraint=eastwest;whiteSpace=wrap;" parent="7UgKAC-AJGtY0KaAJKL_-55" vertex="1">
          <mxGeometry y="110" width="220" height="20" as="geometry" />
        </mxCell>
        <mxCell id="7UgKAC-AJGtY0KaAJKL_-61" value="" style="line;strokeWidth=1;fillColor=none;align=left;verticalAlign=middle;spacingTop=-1;spacingLeft=3;spacingRight=3;rotatable=0;labelPosition=right;points=[];portConstraint=eastwest;" parent="7UgKAC-AJGtY0KaAJKL_-55" vertex="1">
          <mxGeometry y="130" width="220" height="8" as="geometry" />
        </mxCell>
        <mxCell id="7UgKAC-AJGtY0KaAJKL_-62" value="&lt;div&gt;&amp;lt;&amp;lt;enum&amp;gt;&amp;gt;&lt;/div&gt;&lt;div&gt;&lt;b&gt;AuthUserGroup&lt;/b&gt;&lt;/div&gt;" style="swimlane;fontStyle=0;align=center;verticalAlign=top;childLayout=stackLayout;horizontal=1;startSize=40;horizontalStack=0;resizeParent=1;resizeParentMax=0;resizeLast=0;collapsible=0;marginBottom=0;html=1;whiteSpace=wrap;" parent="1" vertex="1">
          <mxGeometry x="710" y="710" width="190" height="98" as="geometry" />
        </mxCell>
        <mxCell id="7UgKAC-AJGtY0KaAJKL_-63" value="&lt;div&gt;ALL,&lt;/div&gt;&lt;div&gt;ACCOUNT,&lt;/div&gt;&lt;div&gt;VERIFIED&lt;/div&gt;" style="text;html=1;strokeColor=none;fillColor=none;align=center;verticalAlign=middle;spacingLeft=4;spacingRight=4;overflow=hidden;rotatable=0;points=[[0,0.5],[1,0.5]];portConstraint=eastwest;whiteSpace=wrap;fontStyle=1" parent="7UgKAC-AJGtY0KaAJKL_-62" vertex="1">
          <mxGeometry y="40" width="190" height="50" as="geometry" />
        </mxCell>
        <mxCell id="7UgKAC-AJGtY0KaAJKL_-64" value="" style="line;strokeWidth=1;fillColor=none;align=left;verticalAlign=middle;spacingTop=-1;spacingLeft=3;spacingRight=3;rotatable=0;labelPosition=right;points=[];portConstraint=eastwest;" parent="7UgKAC-AJGtY0KaAJKL_-62" vertex="1">
          <mxGeometry y="90" width="190" height="8" as="geometry" />
        </mxCell>
        <mxCell id="7UgKAC-AJGtY0KaAJKL_-65" value="&lt;b&gt;ReplicLimitConfig&lt;/b&gt;" style="swimlane;fontStyle=0;align=center;verticalAlign=top;childLayout=stackLayout;horizontal=1;startSize=30;horizontalStack=0;resizeParent=1;resizeParentMax=0;resizeLast=0;collapsible=0;marginBottom=0;html=1;whiteSpace=wrap;" parent="1" vertex="1">
          <mxGeometry x="930" y="702" width="220" height="98" as="geometry" />
        </mxCell>
        <mxCell id="7UgKAC-AJGtY0KaAJKL_-66" value="period: Period" style="text;html=1;strokeColor=none;fillColor=none;align=left;verticalAlign=middle;spacingLeft=4;spacingRight=4;overflow=hidden;rotatable=0;points=[[0,0.5],[1,0.5]];portConstraint=eastwest;whiteSpace=wrap;" parent="7UgKAC-AJGtY0KaAJKL_-65" vertex="1">
          <mxGeometry y="30" width="220" height="20" as="geometry" />
        </mxCell>
        <mxCell id="7UgKAC-AJGtY0KaAJKL_-67" value="count: int" style="text;html=1;strokeColor=none;fillColor=none;align=left;verticalAlign=middle;spacingLeft=4;spacingRight=4;overflow=hidden;rotatable=0;points=[[0,0.5],[1,0.5]];portConstraint=eastwest;whiteSpace=wrap;" parent="7UgKAC-AJGtY0KaAJKL_-65" vertex="1">
          <mxGeometry y="50" width="220" height="20" as="geometry" />
        </mxCell>
        <mxCell id="3" value="periodStart: Instant" style="text;html=1;strokeColor=none;fillColor=none;align=left;verticalAlign=middle;spacingLeft=4;spacingRight=4;overflow=hidden;rotatable=0;points=[[0,0.5],[1,0.5]];portConstraint=eastwest;whiteSpace=wrap;" vertex="1" parent="7UgKAC-AJGtY0KaAJKL_-65">
          <mxGeometry y="70" width="220" height="20" as="geometry" />
        </mxCell>
        <mxCell id="7UgKAC-AJGtY0KaAJKL_-68" value="" style="line;strokeWidth=1;fillColor=none;align=left;verticalAlign=middle;spacingTop=-1;spacingLeft=3;spacingRight=3;rotatable=0;labelPosition=right;points=[];portConstraint=eastwest;" parent="7UgKAC-AJGtY0KaAJKL_-65" vertex="1">
          <mxGeometry y="90" width="220" height="8" as="geometry" />
        </mxCell>
        <mxCell id="7UgKAC-AJGtY0KaAJKL_-69" value="&lt;b&gt;ServerConfig&lt;/b&gt;" style="swimlane;fontStyle=0;align=center;verticalAlign=top;childLayout=stackLayout;horizontal=1;startSize=30;horizontalStack=0;resizeParent=1;resizeParentMax=0;resizeLast=0;collapsible=0;marginBottom=0;html=1;whiteSpace=wrap;" parent="1" vertex="1">
          <mxGeometry x="930" y="530" width="220" height="158" as="geometry" />
        </mxCell>
        <mxCell id="7UgKAC-AJGtY0KaAJKL_-70" value="createReplicsGroup: AuthUserGroup" style="text;html=1;strokeColor=none;fillColor=none;align=left;verticalAlign=middle;spacingLeft=4;spacingRight=4;overflow=hidden;rotatable=0;points=[[0,0.5],[1,0.5]];portConstraint=eastwest;whiteSpace=wrap;" parent="7UgKAC-AJGtY0KaAJKL_-69" vertex="1">
          <mxGeometry y="30" width="220" height="20" as="geometry" />
        </mxCell>
        <mxCell id="7UgKAC-AJGtY0KaAJKL_-71" value="accessReplicsGroup: AuthUserGroup" style="text;html=1;strokeColor=none;fillColor=none;align=left;verticalAlign=middle;spacingLeft=4;spacingRight=4;overflow=hidden;rotatable=0;points=[[0,0.5],[1,0.5]];portConstraint=eastwest;whiteSpace=wrap;" parent="7UgKAC-AJGtY0KaAJKL_-69" vertex="1">
          <mxGeometry y="50" width="220" height="20" as="geometry" />
        </mxCell>
        <mxCell id="7UgKAC-AJGtY0KaAJKL_-72" value="createReportGroup: AuthUserGroup" style="text;html=1;strokeColor=none;fillColor=none;align=left;verticalAlign=middle;spacingLeft=4;spacingRight=4;overflow=hidden;rotatable=0;points=[[0,0.5],[1,0.5]];portConstraint=eastwest;whiteSpace=wrap;" parent="7UgKAC-AJGtY0KaAJKL_-69" vertex="1">
          <mxGeometry y="70" width="220" height="20" as="geometry" />
        </mxCell>
        <mxCell id="7UgKAC-AJGtY0KaAJKL_-73" value="allowAccountCreation: boolean" style="text;html=1;strokeColor=none;fillColor=none;align=left;verticalAlign=middle;spacingLeft=4;spacingRight=4;overflow=hidden;rotatable=0;points=[[0,0.5],[1,0.5]];portConstraint=eastwest;whiteSpace=wrap;" parent="7UgKAC-AJGtY0KaAJKL_-69" vertex="1">
          <mxGeometry y="90" width="220" height="20" as="geometry" />
        </mxCell>
        <mxCell id="7UgKAC-AJGtY0KaAJKL_-74" value="limit: ReplicLimitConfig" style="text;html=1;strokeColor=none;fillColor=none;align=left;verticalAlign=middle;spacingLeft=4;spacingRight=4;overflow=hidden;rotatable=0;points=[[0,0.5],[1,0.5]];portConstraint=eastwest;whiteSpace=wrap;" parent="7UgKAC-AJGtY0KaAJKL_-69" vertex="1">
          <mxGeometry y="110" width="220" height="20" as="geometry" />
        </mxCell>
        <mxCell id="7UgKAC-AJGtY0KaAJKL_-75" value="maximumActivePeriod: Period" style="text;html=1;strokeColor=none;fillColor=none;align=left;verticalAlign=middle;spacingLeft=4;spacingRight=4;overflow=hidden;rotatable=0;points=[[0,0.5],[1,0.5]];portConstraint=eastwest;whiteSpace=wrap;" parent="7UgKAC-AJGtY0KaAJKL_-69" vertex="1">
          <mxGeometry y="130" width="220" height="20" as="geometry" />
        </mxCell>
        <mxCell id="7UgKAC-AJGtY0KaAJKL_-76" value="" style="line;strokeWidth=1;fillColor=none;align=left;verticalAlign=middle;spacingTop=-1;spacingLeft=3;spacingRight=3;rotatable=0;labelPosition=right;points=[];portConstraint=eastwest;" parent="7UgKAC-AJGtY0KaAJKL_-69" vertex="1">
          <mxGeometry y="150" width="220" height="8" as="geometry" />
        </mxCell>
        <mxCell id="7UgKAC-AJGtY0KaAJKL_-77" value="1" style="text;html=1;align=center;verticalAlign=middle;whiteSpace=wrap;rounded=0;fontSize=10;" parent="1" vertex="1">
          <mxGeometry x="770" y="390" width="30" height="30" as="geometry" />
        </mxCell>
        <mxCell id="7UgKAC-AJGtY0KaAJKL_-78" value="account" style="text;html=1;align=center;verticalAlign=middle;whiteSpace=wrap;rounded=0;fontSize=10;" parent="1" vertex="1">
          <mxGeometry x="770" y="420" width="50" height="30" as="geometry" />
        </mxCell>
        <mxCell id="7UgKAC-AJGtY0KaAJKL_-79" value="1" style="text;html=1;align=center;verticalAlign=middle;whiteSpace=wrap;rounded=0;fontSize=10;" parent="1" vertex="1">
          <mxGeometry x="520" y="390" width="30" height="30" as="geometry" />
        </mxCell>
        <mxCell id="7UgKAC-AJGtY0KaAJKL_-80" value="owner" style="text;html=1;align=center;verticalAlign=middle;whiteSpace=wrap;rounded=0;fontSize=10;" parent="1" vertex="1">
          <mxGeometry x="500" y="420" width="50" height="30" as="geometry" />
        </mxCell>
        <mxCell id="7UgKAC-AJGtY0KaAJKL_-81" value="1" style="text;html=1;align=center;verticalAlign=middle;whiteSpace=wrap;rounded=0;fontSize=10;" parent="1" vertex="1">
          <mxGeometry x="594" y="300" width="30" height="30" as="geometry" />
        </mxCell>
        <mxCell id="7UgKAC-AJGtY0KaAJKL_-82" value="visitor" style="text;html=1;align=center;verticalAlign=middle;whiteSpace=wrap;rounded=0;fontSize=10;" parent="1" vertex="1">
          <mxGeometry x="520" y="300" width="50" height="30" as="geometry" />
        </mxCell>
        <mxCell id="7UgKAC-AJGtY0KaAJKL_-83" value="1" style="text;html=1;align=center;verticalAlign=middle;whiteSpace=wrap;rounded=0;fontSize=10;" parent="1" vertex="1">
          <mxGeometry x="415" y="360" width="30" height="30" as="geometry" />
        </mxCell>
        <mxCell id="7UgKAC-AJGtY0KaAJKL_-84" value="replic" style="text;html=1;align=center;verticalAlign=middle;whiteSpace=wrap;rounded=0;fontSize=10;" parent="1" vertex="1">
          <mxGeometry x="350" y="360" width="50" height="30" as="geometry" />
        </mxCell>
        <mxCell id="7UgKAC-AJGtY0KaAJKL_-85" value="0..1" style="text;html=1;align=center;verticalAlign=middle;whiteSpace=wrap;rounded=0;fontSize=10;" parent="1" vertex="1">
          <mxGeometry x="610" y="528" width="30" height="30" as="geometry" />
        </mxCell>
        <mxCell id="7UgKAC-AJGtY0KaAJKL_-86" value="owner" style="text;html=1;align=center;verticalAlign=middle;whiteSpace=wrap;rounded=0;fontSize=10;" parent="1" vertex="1">
          <mxGeometry x="560" y="528" width="50" height="30" as="geometry" />
        </mxCell>
        <mxCell id="7UgKAC-AJGtY0KaAJKL_-87" value="1" style="text;html=1;align=center;verticalAlign=middle;whiteSpace=wrap;rounded=0;fontSize=10;" parent="1" vertex="1">
          <mxGeometry x="450" y="612" width="30" height="30" as="geometry" />
        </mxCell>
        <mxCell id="7UgKAC-AJGtY0KaAJKL_-88" value="replic" style="text;html=1;align=center;verticalAlign=middle;whiteSpace=wrap;rounded=0;fontSize=10;" parent="1" vertex="1">
          <mxGeometry x="490" y="612" width="50" height="30" as="geometry" />
        </mxCell>
        <mxCell id="7UgKAC-AJGtY0KaAJKL_-89" value="&lt;div&gt;&amp;lt;&amp;lt;enum&amp;gt;&amp;gt;&lt;/div&gt;&lt;div&gt;&lt;b&gt;AuthTokenType&lt;/b&gt;&lt;/div&gt;" style="swimlane;fontStyle=0;align=center;verticalAlign=top;childLayout=stackLayout;horizontal=1;startSize=40;horizontalStack=0;resizeParent=1;resizeParentMax=0;resizeLast=0;collapsible=0;marginBottom=0;html=1;whiteSpace=wrap;" parent="1" vertex="1">
          <mxGeometry x="960" y="10" width="190" height="88" as="geometry" />
        </mxCell>
        <mxCell id="7UgKAC-AJGtY0KaAJKL_-90" value="&lt;div&gt;EMAIL_VERIFICATION,&lt;/div&gt;&lt;div&gt;REFRESH_TOKEN&lt;/div&gt;" style="text;html=1;strokeColor=none;fillColor=none;align=center;verticalAlign=middle;spacingLeft=4;spacingRight=4;overflow=hidden;rotatable=0;points=[[0,0.5],[1,0.5]];portConstraint=eastwest;whiteSpace=wrap;fontStyle=1" parent="7UgKAC-AJGtY0KaAJKL_-89" vertex="1">
          <mxGeometry y="40" width="190" height="40" as="geometry" />
        </mxCell>
        <mxCell id="7UgKAC-AJGtY0KaAJKL_-91" value="" style="line;strokeWidth=1;fillColor=none;align=left;verticalAlign=middle;spacingTop=-1;spacingLeft=3;spacingRight=3;rotatable=0;labelPosition=right;points=[];portConstraint=eastwest;" parent="7UgKAC-AJGtY0KaAJKL_-89" vertex="1">
          <mxGeometry y="80" width="190" height="8" as="geometry" />
        </mxCell>
        <mxCell id="7UgKAC-AJGtY0KaAJKL_-92" value="&lt;b&gt;BaseReplic&lt;/b&gt;" style="swimlane;fontStyle=0;align=center;verticalAlign=top;childLayout=stackLayout;horizontal=1;startSize=30;horizontalStack=0;resizeParent=1;resizeParentMax=0;resizeLast=0;collapsible=0;marginBottom=0;html=1;whiteSpace=wrap;" parent="1" vertex="1">
          <mxGeometry x="30" y="320" width="240" height="198" as="geometry" />
        </mxCell>
        <mxCell id="7UgKAC-AJGtY0KaAJKL_-93" value="id: UUID {readOnly}" style="text;html=1;strokeColor=none;fillColor=none;align=left;verticalAlign=middle;spacingLeft=4;spacingRight=4;overflow=hidden;rotatable=0;points=[[0,0.5],[1,0.5]];portConstraint=eastwest;whiteSpace=wrap;" parent="7UgKAC-AJGtY0KaAJKL_-92" vertex="1">
          <mxGeometry y="30" width="240" height="20" as="geometry" />
        </mxCell>
        <mxCell id="7UgKAC-AJGtY0KaAJKL_-94" value="creationTimestamp: Instant {readOnly}" style="text;html=1;strokeColor=none;fillColor=none;align=left;verticalAlign=middle;spacingLeft=4;spacingRight=4;overflow=hidden;rotatable=0;points=[[0,0.5],[1,0.5]];portConstraint=eastwest;whiteSpace=wrap;" parent="7UgKAC-AJGtY0KaAJKL_-92" vertex="1">
          <mxGeometry y="50" width="240" height="20" as="geometry" />
        </mxCell>
        <mxCell id="7UgKAC-AJGtY0KaAJKL_-95" value="originalUrl: URL {readOnly}" style="text;html=1;strokeColor=none;fillColor=none;align=left;verticalAlign=middle;spacingLeft=4;spacingRight=4;overflow=hidden;rotatable=0;points=[[0,0.5],[1,0.5]];portConstraint=eastwest;whiteSpace=wrap;" parent="7UgKAC-AJGtY0KaAJKL_-92" vertex="1">
          <mxGeometry y="70" width="240" height="20" as="geometry" />
        </mxCell>
        <mxCell id="7UgKAC-AJGtY0KaAJKL_-96" value="mediaMode: MediaMode {readOnly}" style="text;html=1;strokeColor=none;fillColor=none;align=left;verticalAlign=middle;spacingLeft=4;spacingRight=4;overflow=hidden;rotatable=0;points=[[0,0.5],[1,0.5]];portConstraint=eastwest;whiteSpace=wrap;" parent="7UgKAC-AJGtY0KaAJKL_-92" vertex="1">
          <mxGeometry y="90" width="240" height="20" as="geometry" />
        </mxCell>
        <mxCell id="7UgKAC-AJGtY0KaAJKL_-97" value="description: String {readOnly}" style="text;html=1;strokeColor=none;fillColor=none;align=left;verticalAlign=middle;spacingLeft=4;spacingRight=4;overflow=hidden;rotatable=0;points=[[0,0.5],[1,0.5]];portConstraint=eastwest;whiteSpace=wrap;" parent="7UgKAC-AJGtY0KaAJKL_-92" vertex="1">
          <mxGeometry y="110" width="240" height="20" as="geometry" />
        </mxCell>
        <mxCell id="7UgKAC-AJGtY0KaAJKL_-98" value="expirationTimestamp: Instant {readOnly}" style="text;html=1;strokeColor=none;fillColor=none;align=left;verticalAlign=middle;spacingLeft=4;spacingRight=4;overflow=hidden;rotatable=0;points=[[0,0.5],[1,0.5]];portConstraint=eastwest;whiteSpace=wrap;" parent="7UgKAC-AJGtY0KaAJKL_-92" vertex="1">
          <mxGeometry y="130" width="240" height="20" as="geometry" />
        </mxCell>
        <mxCell id="7UgKAC-AJGtY0KaAJKL_-99" value="passwordHash: PasswordHash {readOnly}" style="text;html=1;strokeColor=none;fillColor=none;align=left;verticalAlign=middle;spacingLeft=4;spacingRight=4;overflow=hidden;rotatable=0;points=[[0,0.5],[1,0.5]];portConstraint=eastwest;whiteSpace=wrap;" parent="7UgKAC-AJGtY0KaAJKL_-92" vertex="1">
          <mxGeometry y="150" width="240" height="20" as="geometry" />
        </mxCell>
        <mxCell id="7UgKAC-AJGtY0KaAJKL_-100" value="owner: Account {readOnly}" style="text;html=1;strokeColor=none;fillColor=none;align=left;verticalAlign=middle;spacingLeft=4;spacingRight=4;overflow=hidden;rotatable=0;points=[[0,0.5],[1,0.5]];portConstraint=eastwest;whiteSpace=wrap;" parent="7UgKAC-AJGtY0KaAJKL_-92" vertex="1">
          <mxGeometry y="170" width="240" height="20" as="geometry" />
        </mxCell>
        <mxCell id="7UgKAC-AJGtY0KaAJKL_-102" value="" style="line;strokeWidth=1;fillColor=none;align=left;verticalAlign=middle;spacingTop=-1;spacingLeft=3;spacingRight=3;rotatable=0;labelPosition=right;points=[];portConstraint=eastwest;" parent="7UgKAC-AJGtY0KaAJKL_-92" vertex="1">
          <mxGeometry y="190" width="240" height="8" as="geometry" />
        </mxCell>
      </root>
    </mxGraphModel>
  </diagram>
</mxfile>
